<svg width="512" height="512" viewBox="0 0 512 512" fill="none" xmlns="http://www.w3.org/2000/svg">
<g clip-path="url(#clip0_133_322)">
<path d="M1.34596 312.5C1.34596 300.835 0.997977 295.049 1.34615 282.798C4.58327 275.703 6.73373 268.728 10.49 262.764C26.109 237.965 42.1874 213.455 58.1584 188.879C61.3502 183.967 63.271 179.021 63.0303 172.847C62.5255 159.894 62.6311 146.9 63.0735 133.943C63.169 131.144 65.1166 127.526 67.3734 125.961C69.199 124.695 73.5828 124.935 75.3553 126.352C77.3738 127.967 78.6956 131.627 78.706 134.403C78.8969 185.459 78.8324 236.516 78.8899 287.572C78.8925 289.851 79.5396 292.129 80.012 295.231C82.3961 293.53 84.0272 292.696 85.2348 291.451C91.4543 285.038 97.5744 278.528 103.711 272.034C107.443 268.085 108.958 263.681 108.94 257.951C108.706 187.105 108.787 116.257 108.788 45.4101C108.788 37.2404 111.122 34.9329 119.379 34.9329C235.129 34.9318 350.879 34.9316 466.629 34.933C475.08 34.9331 478.065 37.926 478.065 46.3985C478.067 123.066 477.966 199.735 478.217 276.402C478.243 284.298 474.191 288.59 465.926 288.516C441.314 288.294 416.7 288.437 392.086 288.437C389.962 288.437 387.838 288.437 385.514 288.437C385.514 290.961 385.514 293.023 385.514 295.497C394.527 293.426 402.922 294.423 410.989 298.273C411.565 298.548 412.599 298.144 413.309 297.816C423.57 293.075 433.799 293.394 444.062 297.827C444.874 298.178 445.968 298.249 446.834 298.042C450.436 297.184 453.962 295.977 457.586 295.248C468.854 292.98 478.54 295.525 485.768 305.001C494.532 301.662 496.923 294.203 496.937 286.091C497.087 203.104 497.052 120.116 496.947 37.1285C496.943 33.794 496.261 30.2435 494.989 27.1685C491.324 18.3092 483.505 16.0189 474.913 16.0135C366.314 15.9452 257.715 15.9686 149.117 15.9686C132.818 15.9686 116.52 15.9795 100.222 15.9655C85.8284 15.953 78.5612 25.6945 78.7498 37.3319C79.0892 58.2812 78.8605 79.2399 78.816 100.195C78.8126 101.794 78.6449 103.484 78.1114 104.973C76.6479 109.059 73.2654 110.368 69.3788 109.683C64.4847 108.82 62.9623 104.836 62.9375 100.549C62.8098 78.4303 62.6466 56.3074 62.9874 34.1938C63.1323 24.7921 66.4444 16.1735 73.7024 9.76191C77.4229 6.47526 81.7689 3.89665 85.8323 0.998047C220.59 0.998047 355.348 0.998047 490.673 1.3277C493.728 3.48977 496.205 5.33697 498.705 7.15187C507.154 13.2839 511.968 21.4425 511.974 31.9886C512.02 118.242 512.004 204.496 511.974 290.749C511.973 292.695 511.767 294.68 511.35 296.58C508.812 308.128 501.459 315.645 490.692 320.48C489.633 321.402 488.923 322.386 488.144 323.801C488.122 326.274 488.167 328.315 488.144 330.818C488.066 341.925 487.768 352.58 488.181 363.207C488.36 367.82 489.591 372.512 491.06 376.93C494.262 386.564 497.771 396.028 497.097 406.488C496.704 412.59 494.349 416.107 489.657 416.182C484.679 416.262 481.499 412.204 480.962 406.385C480.427 400.591 479.509 394.76 478.015 389.143C475.423 379.401 471.33 370.194 471.893 359.588C472.642 345.491 472.101 331.325 472.065 317.189C472.052 311.935 470.564 310.487 465.374 310.397C464.044 310.374 462.713 310.385 461.382 310.395C455.108 310.441 453.129 312.38 453.122 318.635C453.101 335.433 453.127 352.23 453.108 369.028C453.102 374.991 451.126 377.189 445.842 377.262C440.214 377.34 438.156 375.154 438.15 368.953C438.132 351.823 438.17 334.693 438.099 317.563C438.093 316.011 437.86 314.198 437.041 312.964C435.373 310.448 426.299 309.169 422.508 310.688C418.782 312.181 419.171 315.479 419.174 318.611C419.189 335.409 419.366 352.21 418.991 368.999C418.931 371.677 416.97 375.375 414.766 376.63C412.761 377.771 408.438 377.17 406.585 375.613C404.585 373.934 403.41 370.269 403.355 367.442C403.056 351.981 403.212 336.511 403.212 321.044C403.212 310.211 403.212 310.211 392.081 310.394C386.157 310.491 385.252 311.403 385.25 317.36C385.243 334.157 385.29 350.955 385.225 367.752C385.2 374.289 382.355 377.313 376.647 377.262C371.743 377.218 369.279 374.075 369.279 367.846C369.278 326.601 369.279 285.356 369.278 244.111C369.278 242.946 369.369 241.773 369.256 240.62C368.792 235.887 364.453 230.955 360.474 230.559C356.42 230.156 352.94 233.063 351.296 238.55C350.698 240.547 350.358 242.701 350.355 244.785C350.302 285.697 350.033 326.613 350.549 367.519C350.655 375.884 343.581 379.359 337.126 375.809C326.842 370.155 316.06 365.405 305.465 360.322C300.782 358.076 297.401 359.042 294.716 363.524C291.992 368.07 291.587 372.32 296.712 377.948C310.057 392.603 323.625 407.057 337.198 421.503C345.583 430.427 350.701 440.424 350.423 453.137C350.046 470.421 350.427 487.721 350.413 505.387C350.098 509.548 347.837 511.444 343.924 512.098C337.087 512.276 334.516 509.6 334.409 501.065C334.198 484.271 334.222 467.47 334.417 450.675C334.483 445.058 332.643 440.329 329.023 436.389C315.498 421.672 301.929 406.992 288.135 392.528C281.034 385.081 276.508 377.027 277.347 366.26C278.007 357.793 284.689 348.478 292.615 345.141C300.311 341.902 307.294 343.421 314.264 346.76C320.825 349.902 327.301 353.221 334.02 356.565C334.02 344.814 334.02 333.751 334.02 322.371C331.729 322.371 329.757 322.371 327.784 322.371C277.725 322.371 227.666 322.37 177.606 322.37C169.291 322.37 160.974 322.301 152.661 322.44C151.27 322.463 149.218 322.985 148.623 323.972C145.092 329.825 141.744 335.806 138.715 341.932C138.044 343.289 138.275 345.845 139.157 347.101C149.373 361.644 153.161 377.39 148.832 394.851C147.386 400.684 145.256 406.501 144.886 412.416C144.027 426.122 144.016 439.883 143.736 453.624C143.605 460 141.089 463.09 135.759 463.096C130.401 463.101 127.656 460.024 127.779 453.673C128.015 441.429 128.116 429.169 128.866 416.952C129.284 410.161 130.02 403.151 132.152 396.752C136.921 382.435 135.42 369.085 126.546 357.268C120.118 348.709 120.441 340.891 125.29 332.264C128.882 325.875 132.306 319.392 135.865 312.984C147.18 292.612 158.581 272.289 169.819 251.876C173.092 245.931 172.102 241.073 167.525 237.919C163.551 235.179 158.501 235.969 154.328 240.471C144.016 251.594 133.918 262.918 123.623 274.058C113.638 284.861 103.468 295.492 93.4708 306.283C88.1044 312.075 82.8718 317.994 77.6886 323.952C74.5663 327.54 69.1799 328.437 65.7397 325.706C62.041 322.769 61.7566 317.26 65.3225 313.492C66.772 311.96 68.6635 310.847 70.0122 309.806C65.2161 302.336 62.9842 295.203 62.9337 287.589C62.7783 264.14 62.877 240.69 62.877 217.24C62.877 215.556 62.877 213.873 62.877 212.189C50.9352 229.253 40.0891 246.437 28.9075 263.401C20.3433 276.394 14.1834 290.047 17.1099 305.976C18.3801 312.89 20.0741 320.187 23.5701 326.138C31.394 339.457 40.6009 351.955 48.9874 364.954C54.5289 373.542 59.9421 382.246 64.8356 391.212C70.5821 401.742 68.5442 413.698 69.6527 425C70.8937 437.652 70.5898 450.461 70.8316 463.204C70.932 468.494 68.5689 470.922 63.6696 471.079C58.4169 471.248 55.1146 468.451 54.9126 463.422C54.203 445.758 53.7969 428.077 52.7526 410.434C52.4432 405.205 51.5367 399.416 48.9559 395.029C41.453 382.277 33.0601 370.041 24.8325 357.726C16.9759 345.965 7.91339 334.929 3.75549 321.028C3.43746 319.965 1.84596 315 1.34596 312.5ZM300.912 272.468C311.978 272.468 323.044 272.468 334.097 272.468C334.097 266.484 334.097 261.228 334.097 255.5C326.25 255.5 318.644 255.518 311.039 255.496C299.802 255.464 290.459 246.083 290.437 234.804C290.417 224.327 290.821 213.832 290.325 203.379C289.819 192.703 299.051 181.395 312.01 181.609C322.65 181.786 333.295 181.634 343.938 181.65C349.425 181.658 352.296 184.393 352.311 189.557C352.327 194.776 349.474 197.597 344.084 197.608C333.608 197.628 323.131 197.649 312.654 197.596C308.986 197.578 306.486 198.956 306.445 202.865C306.337 213.341 306.38 223.818 306.426 234.295C306.44 237.367 308.169 239.381 311.173 239.451C319.114 239.635 327.061 239.513 334.961 239.513C336.057 224.609 346.848 215.578 358.101 214.692C369.994 213.755 381.805 221.8 384.422 236.666C384.626 237.825 387.064 239.347 388.513 239.402C395.819 239.682 403.145 239.401 410.458 239.581C414.811 239.688 416.305 237.779 416.237 233.599C416.079 223.956 415.892 214.296 416.299 204.668C416.537 199.053 414.37 197.552 408.938 197.59C397.797 197.669 386.655 197.664 375.513 197.59C370.391 197.557 367.333 194.583 367.283 189.91C367.228 184.818 370.178 181.706 375.451 181.672C387.59 181.592 399.73 181.718 411.869 181.625C422.865 181.541 433.134 192.912 432.354 202.424C431.488 212.996 431.352 223.773 432.383 234.315C433.403 244.745 421.224 256.522 410.773 255.643C402.418 254.94 393.958 255.501 385.645 255.501C385.645 261.55 385.645 266.927 385.645 272.189C411.255 272.189 436.468 272.189 461.773 272.189C461.773 198.35 461.773 124.79 461.773 51.2583C348.972 51.2583 236.496 51.2583 124.056 51.2583C124.056 117.355 124.056 183.094 124.056 245.274C130.242 240.054 138.219 233.379 146.134 226.631C159.943 214.857 177.881 220.509 185.321 235.275C189.893 244.349 188.272 253.66 182.52 262.198C180.434 265.295 178.887 268.756 176.868 272.468C218.435 272.468 259.175 272.468 300.912 272.468ZM331.611 288.441C278.569 288.44 225.526 288.429 172.484 288.476C170.76 288.478 168.091 288.476 167.47 289.475C164.195 294.742 161.436 300.331 158.094 306.561C217.509 306.561 275.769 306.561 334.335 306.561C334.335 301.439 334.409 296.133 334.256 290.833C334.232 290.027 333.154 289.252 331.611 288.441Z" fill="#F16A5E"/>
<path d="M457.551 512.998C456.442 507.846 455.223 502.694 455.221 497.542C455.215 484.991 454.879 472.325 456.468 459.935C457.311 453.363 461.808 447.229 464.828 440.981C466.023 438.509 467.689 436.264 469.139 433.915C471.948 429.366 477.338 427.785 481.436 430.308C485.474 432.792 486.215 437.494 483.245 442.394C480.042 447.677 476.42 452.739 473.647 458.234C472.094 461.312 471.284 465.054 471.192 468.525C470.893 479.813 471.095 491.113 471.072 502.409C471.063 506.792 469.714 510.45 465.218 512.669C462.726 512.998 460.36 512.998 457.551 512.998Z" fill="#F16A5E"/>
<path d="M350.413 505.387C355.262 506.897 350.434 509.92 351.327 512.63C349.276 512.998 347.238 512.998 344.764 512.998C344.327 512.998 344.327 512.582 344.327 512.374C347.837 511.444 350.098 509.548 350.413 505.387Z" fill="black"/>
<path d="M86.7275 170.369C86.6341 164.338 86.3532 158.68 86.7922 153.079C87.1531 148.474 90.8901 147.48 94.7481 147.781C98.8224 148.099 101.399 150.638 101.717 154.684C102.052 158.954 101.974 163.281 101.743 167.566C101.518 171.754 98.91 174.665 95.0155 175.421C91.4676 176.11 88.4473 174.304 86.7275 170.369Z" fill="#F16A5E"/>
<path d="M282.442 187.236C281.342 202.532 269.111 205.038 258.467 208.351C245.46 212.399 231.835 214.272 218.204 213.445C201.606 212.438 185.186 209.963 170.232 201.802C164.716 198.792 162.663 193.99 162.673 187.97C162.7 172.345 162.578 156.718 162.766 141.095C162.805 137.804 161.76 136.132 158.837 134.674C151.991 131.259 145.34 127.45 138.652 123.725C131.169 119.558 131.494 109.742 138.932 105.706C159.267 94.6738 179.49 83.4338 199.747 72.257C205.02 69.3478 210.227 66.3198 215.516 63.4397C219.329 61.3631 223.147 60.458 227.372 62.8026C247.03 73.7098 266.751 84.5026 286.469 95.3017C291.758 98.1988 297.118 100.968 302.438 103.81C303.585 104.422 304.808 104.962 305.811 105.765C313.907 112.25 313.188 119.732 303.947 124.829C298.38 127.899 292.796 130.954 287.091 133.753C283.756 135.389 282.289 137.468 282.351 141.399C282.59 156.522 282.447 171.651 282.442 187.236ZM161.193 111.778C159.642 112.753 158.091 113.729 156.311 114.849C159.091 116.511 161.28 117.919 163.557 119.167C181.546 129.032 199.679 138.646 217.454 148.882C221.385 151.145 223.971 150.954 227.392 148.794C231.183 146.4 235.207 144.374 239.434 142.019C231.676 134.623 224.011 127.346 216.384 120.029C213.123 116.9 214.012 113.2 216.015 110.147C218.002 107.117 221.184 105.471 224.954 107.653C226.913 108.788 228.991 109.879 230.604 111.421C235.888 116.468 240.907 121.793 246.171 126.862C253.529 133.946 253.582 133.884 262.615 129.166C263.626 128.638 264.71 128.248 265.706 127.695C273.31 123.468 280.901 119.217 289.041 114.668C285.832 113.038 283.209 111.801 280.674 110.403C262.001 100.101 243.371 89.7209 224.633 79.5372C223.298 78.8116 220.883 78.8216 219.542 79.5474C200.215 90.0113 180.987 100.657 161.193 111.778ZM245.52 172.769C245.52 167.67 245.52 162.572 245.52 156.845C241.342 159.264 237.786 161.496 234.075 163.431C228.141 166.525 222.296 170.189 215.244 165.953C208.266 161.762 201.153 157.792 194.027 153.854C189.106 151.135 184.064 148.637 178.652 145.819C178.652 159.519 178.592 172.48 178.748 185.438C178.763 186.711 179.816 188.704 180.875 189.118C192.12 193.515 203.683 196.836 215.803 197.585C233.421 198.673 250.184 195.043 266.1 188.116C266.1 173.937 266.1 159.944 266.1 145.874C261.138 146.999 260.207 150.095 260.415 154.377C260.712 160.512 260.585 166.674 260.457 172.822C260.359 177.546 258.21 179.265 252.257 179.63C248.09 179.885 245.691 178.003 245.52 172.769Z" fill="#F16A5E"/>
<path d="M360.296 133.738C384.21 133.739 407.625 133.661 431.039 133.812C435.109 133.839 439.623 133.725 441.281 139.136C443.124 145.152 440.204 149.637 433.881 149.68C420.929 149.77 407.976 149.707 395.023 149.707C376.424 149.707 357.825 149.71 339.227 149.705C333.806 149.704 330.539 147.153 330.356 142.811C330.117 137.132 332.9 133.974 338.875 133.792C345.843 133.579 352.823 133.74 360.296 133.738Z" fill="#F16A5E"/>
<path d="M330.381 110.259C330.353 102.25 332.728 99.8113 340.195 99.8076C357.773 99.799 375.352 99.7945 392.931 99.8104C398.851 99.8157 402.096 102.558 402.212 107.559C402.334 112.83 399.042 115.762 392.895 115.768C375.15 115.784 357.405 115.709 339.661 115.821C335.447 115.847 332.376 114.392 330.381 110.259Z" fill="#F16A5E"/>
</g>
<defs>
<clipPath id="clip0_133_322">
<rect width="512" height="512" fill="white"/>
</clipPath>
</defs>
</svg>
