<svg width="512" height="512" viewBox="0 0 512 512" fill="none" xmlns="http://www.w3.org/2000/svg">
<path d="M55.5962 377.261C50.4032 388.823 41.3375 394.119 29.2085 392.996C20.8295 392.22 11.2523 383.972 9.3402 374.377C7.37504 364.516 10.4816 355.332 16.3361 347.277C18.3582 344.495 21.3993 342.473 23.6303 339.815C24.5528 338.715 24.9297 336.859 24.9417 335.342C25.0416 322.677 24.7203 310 25.1536 297.349C25.2998 293.08 26.7214 288.623 28.5611 284.724C29.7948 282.11 29.8784 280.383 28.6444 277.945C27.1703 275.033 25.7176 271.953 25.124 268.783C23.5878 260.58 28.9375 255.58 34.9232 252.053C48.4626 244.075 62.4167 236.799 76.2182 229.267C90.2846 221.59 104.322 213.859 118.486 206.365C121.496 204.772 120.99 202.444 120.99 200.038C121.001 149.706 121.092 99.3729 120.948 49.0406C120.897 31.5127 133.745 14.9529 149.935 10.4409C154.088 9.28349 158.608 9.05839 162.96 9.05516C261.959 8.98166 360.957 8.9875 459.956 9.01509C470.298 9.01798 480.541 10.4425 488.755 17.1559C497.843 24.5844 504.936 33.7829 504.95 46.2947C505.046 133.46 505.086 220.626 504.931 307.791C504.896 327.264 486.257 344.96 466.432 344.984C420.099 345.039 373.766 345.001 327.434 345.001C325.471 345.001 323.508 345.001 321.015 345.001C321.015 356.678 320.613 367.981 321.326 379.214C321.485 381.715 325.404 384.152 327.868 386.303C339.052 396.064 340.149 413.801 332.812 424.622C322.481 439.861 311.75 455.044 299.464 468.698C274.246 496.724 229.037 496.451 203.167 465.479C202.675 464.89 202.198 464.288 200.992 462.802C200.992 477.467 200.992 491.008 200.992 504.769C150.242 504.769 99.9726 504.769 48.9985 504.769C48.9985 503.003 48.9985 501.246 48.9985 499.49C48.9984 475.49 48.4953 451.476 49.1716 427.495C49.6379 410.966 55.9071 396.322 65.4601 382.505C75.2748 368.309 88.001 358.692 103.281 351.709C103.526 351.597 103.633 351.183 103.507 351.385C98.9117 345.99 94.1935 340.931 90.073 335.426C87.7293 332.294 85.8393 328.591 84.699 324.854C83.4835 320.871 81.2635 320.16 78.0638 321.546C75.173 322.797 74.2235 321.274 73.185 319.165C68.9373 310.538 64.6398 301.936 60.8169 294.243C54.1533 295.39 48.0268 296.445 41.0015 297.654C41.0015 300.743 41.0014 305.327 41.0015 309.911C41.0015 318.411 40.8794 326.914 41.0935 335.408C41.1428 337.364 41.7597 340.213 43.1167 341.075C49.8367 345.347 52.6802 351.927 55.2524 358.933C57.4577 364.939 57.3746 370.848 55.5962 377.261ZM333.5 232.999C385.245 232.999 436.991 232.999 488.783 232.999C488.89 231.667 488.987 231.016 488.988 230.366C488.996 170.212 489.158 110.058 488.884 49.9052C488.817 34.9697 479.002 25.0704 463.173 25.0541C362.861 24.9507 262.549 25.013 162.237 24.9899C146.41 24.9863 136.821 37.9393 136.893 50.4619C137.163 97.4503 137.002 144.441 137.001 191.431C137.001 192.805 137.001 194.18 137.001 196.082C140.24 194.401 142.731 193.157 145.175 191.826C147.772 190.413 150.301 188.876 152.9 187.466C158.37 184.499 167.172 184.68 170.78 187.914C177.377 193.827 180.999 201.694 183.856 209.738C187.298 219.428 182.074 226.743 175.438 230.039C174.278 230.615 173.258 231.473 170.983 232.999C225.898 232.999 279.199 232.999 333.5 232.999ZM219.94 460.424C226.496 464.213 232.646 469.345 239.703 471.473C250.085 474.605 260.9 473.478 271.252 469.383C279.299 466.2 285.805 460.747 291.32 454.578C297.82 447.307 303.15 438.962 308.714 430.893C312.899 424.824 318.987 419.994 320.618 412.217C322.149 404.912 319.355 397.819 313.34 394.76C306.768 391.417 300.782 393.122 295.425 399.611C286.318 410.642 276.557 421.188 268.154 432.726C263.052 439.732 257.294 441.86 249.22 441.156C245.931 440.869 243.774 440.073 241.931 437.355C235.599 428.01 229.393 418.555 222.569 409.575C214.959 399.562 207.603 389.1 198.548 380.506C186.66 369.224 171.697 363.543 155.114 361.861C141.056 360.435 127.257 360.423 113.805 365.031C85.3464 374.781 66.1532 400.663 65.1387 430.134C64.4915 448.934 65.0065 467.774 65.0311 486.596C65.032 487.357 65.348 488.119 65.4889 488.752C105.367 488.752 144.953 488.752 184.999 488.752C184.999 474.063 185.115 459.615 184.886 445.172C184.848 442.753 183.754 440.067 182.389 438.008C178.703 432.451 174.607 427.165 170.476 421.499C175.349 418.112 179.431 415.276 183.365 412.541C188.323 419.223 192.61 425.14 197.044 430.944C204.46 440.651 211.969 450.285 219.94 460.424ZM486.08 316.43C487.053 311.289 488.741 306.165 488.865 301.003C489.237 285.514 488.999 270.011 488.999 254.514C488.999 252.757 488.999 251 488.999 249.175C385.713 249.175 283.132 249.175 180.035 249.175C182.446 254.199 184.7 258.895 186.963 263.609C185.251 265.205 183.521 266.38 182.436 267.99C181.75 269.007 181.392 271.084 181.974 271.984C187.173 280.036 191.232 288.186 192.329 298.15C194.201 315.155 190.001 329.668 178.435 342.161C176.578 344.166 174.873 346.313 173.71 347.676C185.581 354.059 197.116 360.261 209.138 366.724C209.138 332.861 209.138 299.017 209.138 265.259C246.703 265.259 283.636 265.259 321.101 265.259C321.101 270.567 321.101 275.634 321.101 281.205C372.018 281.205 422.402 281.205 472.755 281.205C472.755 286.672 472.755 291.61 472.755 297.067C422.128 297.067 371.744 297.067 321.355 297.067C321.355 307.984 321.355 318.371 321.355 328.937C370.35 328.937 418.993 329.136 467.631 328.73C475.238 328.667 481.647 324.083 486.08 316.43ZM305 352.5C305 328.765 305 305.03 305 281.356C277.975 281.356 251.609 281.356 225.003 281.356C225.003 315.322 224.958 348.935 225.108 382.546C225.117 384.667 226.258 387.048 227.52 388.856C235.851 400.795 244.358 412.61 253.248 425.081C257.597 419.766 261.742 414.652 265.94 409.584C270.325 404.29 274.666 398.956 279.207 393.798C282.519 390.034 285.659 385.841 289.722 383.088C294.294 379.992 299.815 378.297 305 375.958C305 368.478 305 360.989 305 352.5ZM161.926 284.472C143.129 299.426 121.698 309.295 98.8554 316.049C104.834 335.774 118.438 343.967 135.734 344.911C150.782 345.732 167.367 337.073 173.87 320.218C179.048 306.797 177.803 291.524 167.568 280.171C165.875 281.447 164.172 282.731 161.926 284.472ZM138.513 280.993C147.354 274.604 156.235 268.266 164.974 261.739C165.799 261.123 166.388 259.013 165.973 258.105C163.246 252.13 160.213 246.295 157.076 240.007C129.357 255.118 102.077 269.989 74.5116 285.016C77.7006 291.55 80.6513 297.596 83.5975 303.632C92.9499 300.682 102.618 298.299 111.734 294.569C120.745 290.882 129.199 285.835 138.513 280.993ZM121.443 240.983C134.502 234.069 147.585 227.2 160.612 220.226C169.111 215.675 169.081 215.604 164.479 206.626C163.578 204.867 162.613 203.141 161.599 201.256C121.259 223.286 81.1413 245.195 41.1628 267.027C43.8335 272.033 46.268 276.597 48.5992 280.966C73.1098 267.476 96.9305 254.365 121.443 240.983ZM40.4136 371.233C41.5931 364.576 38.3032 356.861 32.5448 353.213C27.8631 357.31 25.4337 362.667 25.1307 368.744C24.9209 372.952 27.4543 376.178 31.7542 376.711C35.3718 377.16 38.9263 376.244 40.4136 371.233Z" fill="#F16A5E"/>
<path d="M401.004 126.122C401.564 152.124 392.673 173.902 374.629 191.818C343.109 223.115 293.132 225.648 258.632 198.224C240.445 183.767 229.363 165.117 225.982 142.09C222.986 121.683 226.566 102.784 237.278 84.7346C248.539 65.7588 264.117 52.6773 284.709 45.7592C291.901 43.3428 299.902 43.433 307.444 41.929C315.571 40.3083 323.353 41.8725 331.212 43.4671C341.99 45.6541 352.256 48.9312 361.235 55.657C376.84 67.3451 390.088 80.977 395.999 100.027C398.562 108.287 399.389 117.086 401.004 126.122ZM329.315 59.0167C315.906 56.0291 302.649 56.4517 289.645 61.0328C261.085 71.0943 241.832 96.8526 241.202 126.318C240.693 150.118 249.21 170.204 268.474 185.662C279.418 194.443 291.713 199.113 304.92 200.673C317.807 202.196 330.687 200.051 342.825 194.369C357.824 187.347 369.58 176.914 376.934 162.181C385.655 144.707 387.639 126.236 381.461 107.492C373.133 82.224 355.655 66.3381 329.315 59.0167Z" fill="#F16A5E"/>
<path d="M169 63.1041C169 71.8805 169 80.1708 169 88.7284C163.664 88.7284 158.727 88.7284 153 88.7284C153 86.7682 153 84.6895 153 82.6109C153 74.7825 153 66.9542 153 59.1258C153.001 47.1063 159.137 41.0003 171.217 41.0001C190.039 40.9999 208.86 41.0001 227.681 41.0001C229.3 41.0001 230.919 41.0001 232.765 41.0001C232.765 46.4134 232.765 51.3489 232.765 56.8075C211.722 56.8075 190.672 56.8075 169 56.8075C169 59.0855 169 60.8518 169 63.1041Z" fill="#F16A5E"/>
<path d="M468.848 201.001C471.484 200.841 473.226 200.898 473.054 203.981C472.825 208.101 472.998 212.243 472.998 216.686C467.632 216.686 462.585 216.686 457.267 216.686C457.267 211.656 457.267 206.725 457.267 201.001C460.889 201.001 464.63 201.001 468.848 201.001Z" fill="#F16A5E"/>
<path d="M463.072 169C466.515 169 469.478 169 472.714 169C472.714 174.427 472.714 179.474 472.714 184.761C467.599 184.761 462.668 184.761 457.367 184.761C457.367 179.745 457.367 174.695 457.367 169C459.068 169 460.83 169 463.072 169Z" fill="#F16A5E"/>
<path d="M457 142.112C457.09 140.192 457.179 138.754 457.277 137.178C462.543 137.178 467.471 137.178 472.7 137.178C472.7 142.398 472.7 147.445 472.7 152.747C467.63 152.747 462.698 152.747 457 152.747C457 149.417 457 146.006 457 142.112Z" fill="#F16A5E"/>
<path d="M166.757 120.988C162.125 120.997 157.968 120.997 153.406 120.997C153.406 115.827 153.406 110.774 153.406 105.357C158.278 105.357 163.325 105.357 168.93 105.357C168.93 110.084 168.978 114.846 168.856 119.603C168.844 120.075 167.798 120.521 166.757 120.988Z" fill="#F16A5E"/>
<path d="M250.043 297.001C263.159 297.001 275.779 297.001 288.698 297.001C288.698 302.399 288.698 307.447 288.698 312.749C272.957 312.749 257.368 312.749 241.39 312.749C241.39 307.787 241.39 302.733 241.39 297.001C244.023 297.001 246.785 297.001 250.043 297.001Z" fill="#F16A5E"/>
<path d="M253.016 329.001C265.136 329.001 276.76 329.001 288.69 329.001C288.69 334.382 288.69 339.431 288.69 344.741C272.974 344.741 257.385 344.741 241.398 344.741C241.398 339.806 241.398 334.751 241.398 329.001C245.005 329.001 248.762 329.001 253.016 329.001Z" fill="#F16A5E"/>
<path d="M272.917 362.294C272.977 367.254 272.977 371.741 272.977 376.613C262.449 376.613 252.069 376.613 241.343 376.613C241.343 371.685 241.343 366.637 241.343 361.821C251.873 361.821 262.365 361.821 272.917 362.294Z" fill="#F16A5E"/>
<path d="M273.003 156.997C273.003 132.754 273.003 109.01 273.003 84.4492C303.121 99.5096 332.467 114.184 362.686 129.294C332.411 144.429 302.958 159.153 273.003 174.129C273.003 168.092 273.003 162.794 273.003 156.997ZM308.789 137.987C314.55 135.243 320.312 132.5 327.219 129.21C313.705 122.477 301.599 116.446 289.203 110.27C289.203 123.391 289.203 135.669 289.203 148.202C295.723 144.793 301.97 141.527 308.789 137.987Z" fill="#F16A5E"/>
</svg>
