<svg width="512" height="512" viewBox="0 0 512 512" fill="none" xmlns="http://www.w3.org/2000/svg">
<path d="M16.9991 278C16.9991 204.008 17.0494 130.515 16.96 57.0233C16.9402 40.773 27.6844 25.2695 42.4936 19.7667C46.8778 18.1376 51.772 17.1161 56.4339 17.1112C188.087 16.9722 319.74 16.9665 451.392 17.0653C461.31 17.0728 471.069 18.1381 479.532 24.5748C490.351 32.8037 497.044 42.8895 497.032 56.9559C496.966 137.114 497.002 217.272 496.999 297.431C496.998 319.212 479.179 336.988 457.325 336.998C432.495 337.01 407.664 337.001 382.833 337.001C381.046 337.001 379.258 337.001 377.001 337.001C377.001 348.424 376.689 359.388 377.087 370.326C377.494 381.505 373.934 390.942 366.444 399.068C361.869 404.031 360.376 409.9 361.204 416.458C364.449 416.99 367.474 417.639 370.533 417.952C375.235 418.432 376.943 421.451 376.959 425.574C377.044 446.571 377.071 467.569 376.948 488.567C376.916 494.096 374.23 496.556 368.678 496.982C367.353 497.084 366.013 497.001 364.68 497.001C318.851 497.001 273.023 497.002 227.194 497C219.494 496.999 217.002 494.565 217.001 487.033C216.996 467.369 217.165 447.702 216.914 428.041C216.82 420.683 217.911 417.418 228.137 417.008C229.593 416.949 231.054 416.999 232.683 416.999C233.703 409.392 232.16 402.823 228.147 396.801C215.531 377.872 202.848 358.988 190.369 339.969C188.59 337.257 186.515 336.957 183.719 336.961C141.057 337.018 98.395 337.008 55.7328 336.997C35.2849 336.992 17.124 318.932 17.0049 298.496C16.9661 291.831 16.999 285.165 16.9991 278ZM248.018 282.917C248.015 300.267 248.501 317.15 248.544 334.5C248.548 335.94 248.47 337.847 248.544 339.92C244.457 346.574 238.149 346.839 233.584 340.516C226.098 330.145 218.611 319.775 211.18 309.366C205.838 301.882 200.024 302.285 193.062 303.398C187.788 304.241 187.083 306.839 190.064 311.298C205.655 334.618 221.295 357.904 236.852 381.247C241.82 388.703 247.782 395.729 248.723 405.162C249.11 409.048 249.102 412.973 249.267 416.719C281.412 416.719 313.015 416.719 345 416.719C345 414.644 345.064 412.842 344.989 411.047C344.607 401.857 349.206 394.566 354.708 388.063C358.516 383.562 360.924 378.864 360.946 373.179C361.06 343.013 361.02 312.848 360.981 282.682C360.974 276.963 357.613 273.034 353.012 273.026C348.399 273.018 345.095 276.936 345.013 282.652C344.947 287.318 345.145 291.991 344.959 296.65C344.738 302.159 341.577 305.164 336.578 304.996C331.968 304.841 329.059 301.57 329.009 296.385C328.965 291.886 329.041 287.385 328.99 282.886C328.923 277.069 325.836 273.199 321.216 273.026C316.463 272.849 313.072 276.909 313.009 282.948C312.961 287.614 313.178 292.29 312.947 296.945C312.688 302.179 309.58 305.057 304.782 304.995C300.115 304.934 297.072 301.694 297.012 296.59C296.954 291.59 297.136 286.585 296.955 281.592C296.779 276.7 293.111 272.965 288.92 273.026C284.668 273.088 281.204 276.78 281.035 281.745C280.882 286.239 281.033 290.743 280.992 295.243C280.933 301.673 278.213 304.954 272.986 304.993C267.788 305.032 265.004 301.666 265.002 295.294C264.997 270.128 265.006 244.962 264.995 219.797C264.993 213.336 262.386 209.579 257.624 209.063C253.335 208.598 250.048 211.952 248.15 218.509C248.155 239.669 248.16 260.828 248.018 282.917ZM238.5 33.0001C186.083 33.0001 133.666 33.0001 81.4007 33.0001C81.4007 129.418 81.4007 225.133 81.4007 320.554C113.464 320.554 145.125 320.554 177.257 320.554C174.651 316.551 171.913 313.282 170.317 309.528C169.406 307.385 169.413 303.832 170.628 301.975C177.301 291.78 186.272 286.326 199.27 286.726C210.127 287.06 217.402 292.048 223.703 299.789C226.656 303.417 229.42 307.2 232.762 311.555C232.762 287.759 232.762 265.009 232.762 241.531C228.88 243.712 225.566 245.814 222.053 247.5C214.25 251.245 209.004 247.88 209.003 239.272C208.996 197.776 209.14 156.278 208.877 114.784C208.827 106.89 213.735 103.227 221.69 107.303C234.647 113.942 247.092 121.573 259.813 128.677C270.98 134.914 282.277 140.919 293.431 147.18C305.019 153.685 316.635 160.16 327.96 167.103C331.715 169.404 336.774 171.384 336.922 176.989C337.071 182.679 332.289 184.517 328.295 186.798C313.602 195.19 298.873 203.519 284.233 212.001C282.883 212.783 281.165 214.474 281.144 215.767C280.922 229.736 281.005 243.71 281.005 257.921C289.819 257.751 298.759 255.653 304.763 264.06C313.547 254.808 324.378 254.799 336.976 263.592C341.23 258.701 347.012 258.75 352.883 257.756C364.828 255.733 377.453 269.473 377.082 281.058C376.709 292.712 377 304.387 377 316.052C377 317.636 377 319.219 377 320.746C396.019 320.746 414.288 320.746 432.696 320.746C432.696 224.776 432.696 129.062 432.696 33.0001C368.095 33.0001 303.797 33.0001 238.5 33.0001ZM33.0003 126.5C33.0004 182.825 33.0109 239.15 32.9887 295.476C32.9856 303.476 35.3282 310.956 41.5714 315.695C48.1715 320.705 56.2712 322.63 64.7696 320.446C64.7696 224.678 64.7696 129.084 64.7696 33.5346C46.1083 30.0216 32.1892 43.069 32.8146 60.5163C33.5901 82.152 33.0004 103.837 33.0003 126.5ZM480.999 255.5C480.999 245.506 480.999 235.511 480.999 225.516C480.999 170.047 481.017 114.577 480.99 59.1078C480.98 39.5454 465.149 30.3059 449.395 33.7457C449.395 129.479 449.395 225.163 449.395 321.268C453.913 320.956 458.224 321.384 462.083 320.261C475.577 316.332 480.709 308.264 480.952 294.478C481.175 281.823 480.999 269.16 480.999 255.5ZM273.5 481C302.578 481 331.655 481 360.606 481C360.606 464.596 360.606 448.879 360.606 433.254C317.958 433.254 275.703 433.254 233.305 433.254C233.305 449.225 233.305 464.94 233.305 481C246.571 481 259.535 481 273.5 481ZM302.366 182.795C305.558 180.927 308.751 179.06 312.494 176.87C282.984 160.02 254.241 143.608 225.289 127.076C225.289 160.522 225.289 193.371 225.289 226.404C230.495 224.976 233.709 222.792 233.131 216.739C232.586 211.045 235.271 206.346 238.868 201.738C246.598 191.837 260.973 190.772 269.522 196.98C272.629 199.236 274.576 198.805 276.932 197.479C285.245 192.798 293.431 187.89 302.366 182.795Z" fill="#F16A5E"/>
<path d="M197.767 101.739C171.075 123.521 159.194 151.711 161.336 185.311C162.503 203.624 169.614 220.473 180.351 235.501C187.516 245.529 196.801 253.379 207.321 259.685C210.973 261.874 215.105 263.256 219.002 265.041C223.818 267.248 225.952 270.753 225.101 274.974C224.109 279.898 218.969 282.729 213.831 280.493C185.859 268.317 164.975 248.847 153.884 220.051C150.184 210.444 146.624 200.405 145.506 190.286C144.302 179.394 145.191 168.061 146.693 157.129C148.876 141.243 155.367 126.765 164.586 113.589C180.585 90.7216 201.987 75.1916 229.023 68.4624C239.481 65.8595 250.678 64.8931 261.471 65.2458C283.895 65.9785 304.354 73.1525 322.529 86.825C343.639 102.706 358.819 122.617 365.311 148.391C374.174 183.581 367.665 215.958 346.098 245.211C342.868 249.592 337.602 250.479 333.898 247.509C330.149 244.504 330.533 240.632 333.965 235.262C341.653 223.228 348.324 210.687 350.915 196.386C353.914 179.832 353.646 163.329 348.045 147.45C335.632 112.26 311.121 90.324 274.303 83.0609C246.186 77.5142 220.816 84.4463 197.767 101.739Z" fill="#F16A5E"/>
<path d="M52.8371 192.096C44.8807 194.119 41.0224 191.185 41.0012 183.513C40.9879 178.702 41.0327 173.89 40.9888 169.08C40.9524 165.084 42.8165 162.081 46.6205 161.457C51.8739 160.595 56.4037 163.251 56.7095 167.454C57.1765 173.871 57.0171 180.369 56.5735 186.795C56.4502 188.581 54.386 190.234 52.8371 192.096Z" fill="#F16A5E"/>
<path d="M462.616 192.805C458.274 190.914 456.724 187.888 456.943 183.556C457.186 178.757 457.049 173.936 456.983 169.126C456.929 165.107 458.82 162.074 462.584 161.439C468.253 160.482 472.602 163.532 472.895 168.386C473.244 174.171 473.301 180.018 472.874 185.793C472.485 191.055 469.428 192.954 462.616 192.805Z" fill="#F16A5E"/>
<path d="M329.209 454.588C332.109 449.686 338.529 447.744 344.917 449.409C348.195 450.263 351.66 450.83 352.828 454.727C354.279 459.57 351.082 464.268 345.598 464.903C342.317 465.283 338.936 465.221 335.638 464.929C331.16 464.534 328.998 461.02 329.209 454.588Z" fill="#F16A5E"/>
</svg>
