<svg width="512" height="512" viewBox="0 0 512 512" fill="none" xmlns="http://www.w3.org/2000/svg">
<g clip-path="url(#clip0_133_304)">
<path d="M1 382C0.999998 276.979 0.999998 171.958 1.34556 66.3164C5.80884 47.1557 23.1019 32.6266 43.6205 33.9025C52.8866 34.4787 62.2182 34.0002 71.5201 34.0003C75.2695 34.0003 79.019 34.0003 83.1126 34.0003C82.0509 18.6951 86.3274 6.91038 101 1C204.688 1 308.375 1 412.672 1.33751C429.062 6.84434 431.265 19.8363 431.158 34.0004C445.897 34.0004 460.009 33.9807 474.121 34.007C484.228 34.0258 492.691 37.9739 500.184 44.6087C506.762 50.4321 509.819 58.2192 513 66C513 171.021 513 276.042 512.656 381.681C507.061 401.892 490.977 414.158 470.507 414.067C423.381 413.857 376.253 414 329.126 414C327.194 414 325.262 414 323.372 414C323.372 431.018 323.372 447.393 323.372 464C336.551 464 349.361 463.922 362.17 464.023C374.212 464.118 381.001 471.08 381 483.077C381 486.907 380.768 490.754 381.047 494.564C381.691 503.379 377.314 509.033 370 513C355.646 513 341.292 513 326.362 512.662C322.364 509.79 320.604 506.238 322.413 502.414C324.133 498.776 327.672 497.479 332.02 497.896C336.808 498.355 341.675 498 346.508 498C352.599 498 358.69 498 364.743 498C364.743 491.66 364.743 486.06 364.743 480.312C292.776 480.312 221.065 480.312 149.378 480.312C149.378 486.352 149.378 492.071 149.378 498C151.742 498 153.73 498 155.718 498C203.711 498 251.705 497.996 299.698 498.006C305.469 498.008 309.324 502.262 307.854 507.483C307.28 509.522 305.326 511.173 304 513C250.979 513 197.958 513 144.337 512.669C140.494 509.089 135.18 506.253 134.433 502.507C132.776 494.195 133.392 485.427 133.148 476.842C133.132 476.266 133.684 475.676 133.963 475.088C137.588 467.435 143.752 463.967 152.097 463.992C163.43 464.025 174.764 464 186.097 464C187.674 464 189.251 464 190.71 464C190.71 446.929 190.71 430.662 190.71 414C188.626 414 186.828 414 185.029 414C159.363 414 133.697 414.013 108.031 413.99C101.913 413.985 98.6634 410.892 99.0028 405.562C99.3411 400.248 102.617 398.002 110.088 398.002C230.586 397.999 351.085 397.943 471.583 398.06C490.11 398.078 500.558 380.773 497.224 364.271C336.944 364.271 176.677 364.271 15.6848 364.271C16.1487 368.315 16.8512 372.009 16.9461 375.718C17.2418 387.275 29.852 398.291 40.9223 398.055C52.5835 397.808 64.2545 397.944 75.9204 398.028C80.7772 398.062 83.8913 401.046 83.999 405.389C84.1138 410.018 81.537 413.969 77.7904 413.926C62.861 413.757 47.8866 413.937 33.0249 412.767C23.8438 412.045 15.9915 407.007 10.7315 399.173C7.07443 393.726 4.21551 387.743 1 382ZM252.5 15.9997C205.836 15.9998 159.171 15.948 112.507 16.0407C102.382 16.0608 98.9518 19.7994 98.9617 29.6048C99.0331 100.769 99.0001 171.934 99.0001 243.098C99.0001 245.01 99.0001 246.922 99.0001 248.71C105.407 248.71 111.008 248.71 117 248.71C117 232.959 116.875 217.493 117.045 202.031C117.155 192.08 120.48 182.817 126.576 175.241C132.572 167.787 140.022 161.503 146.78 154.759C125.499 136.315 131.401 109.157 145.133 95.465C159.756 80.8844 183.127 78.9309 200.273 92.847C208.231 99.3059 213.444 108.004 214.745 117.883C216.678 132.572 212.752 145.942 200.649 155.814C210.286 162.04 219.398 167.928 227.774 173.339C235.182 164.58 233.057 154.398 233.031 144.471C232.947 112.639 232.996 80.8068 233.003 48.9744C233.005 40.1173 239.013 34.0062 247.744 34.0045C292.576 33.9959 337.408 33.996 382.24 34.0041C390.971 34.0057 396.996 40.1192 396.998 48.9573C397.004 82.6229 397.004 116.288 396.998 149.954C396.996 159.047 390.993 164.997 381.827 164.998C350.828 165.003 319.829 165.029 288.83 164.955C285.753 164.947 284.046 165.323 282.798 168.895C277.104 185.179 271.056 201.348 264.738 217.401C261.482 225.674 256.725 233.263 247.171 235.172C242.489 236.108 237.466 235.334 232.378 235.334C232.378 239.73 232.378 244.255 232.378 248.735C293.355 248.735 353.953 248.735 415 248.735C415 246.517 415 244.559 415 242.6C415 171.936 414.936 101.271 415.069 30.6068C415.088 20.0291 411.982 15.9982 400.495 15.9987C351.497 16.0011 302.498 15.9998 252.5 15.9997ZM234.5 348C294.559 348 354.618 348 414.607 348C414.607 320.629 414.607 292.909 414.607 265.263C336.96 265.263 259.707 265.263 182.302 265.263C182.302 293.2 182.302 320.873 182.302 348C199.565 348 216.533 348 234.5 348ZM349.5 50.0001C315.759 50.0001 282.017 50.0001 248.299 50.0001C248.299 76.2303 248.299 101.76 248.299 127.99C253.78 122.363 260.079 120.878 267.039 120.849C268.365 120.843 270.528 119.127 270.874 117.821C274.746 103.195 278.351 88.4975 281.998 73.8118C283.251 68.7634 287.082 66.0748 291.789 67.0408C296.205 67.947 299.012 72.6203 297.817 77.3692C293.726 93.62 289.474 109.831 285.552 126.122C285.045 128.226 285.557 130.993 286.56 132.962C289.286 138.318 290.781 143.756 289.6 149.744C320.354 149.744 350.944 149.744 381.695 149.744C381.695 116.448 381.695 83.4081 381.695 50.0001C371.095 50.0001 360.798 50.0001 349.5 50.0001ZM83.0003 189.5C83.0003 154.088 83.0003 118.677 83.0003 83.0001C74.9779 83.0001 67.6644 82.9967 60.3509 83.001C52.4177 83.0056 50.0016 85.3949 50.0014 93.2585C49.9993 176.567 50.0001 259.876 50.0001 343.184C50.0001 344.968 50.0001 346.753 50.0001 348.683C61.2263 348.683 71.9417 348.683 83.0003 348.683C83.0003 295.745 83.0003 243.122 83.0003 189.5ZM464 263.5C464 209.209 463.992 154.917 464.028 100.626C464.029 98.3504 464.387 96.0686 464.665 93.8003C465.249 89.0412 461.74 83.2683 457.457 83.1203C448.384 82.8068 439.292 83.0247 430.589 83.0247C430.589 171.605 430.589 259.565 430.589 347.618C441.772 347.618 453.283 347.618 464 347.618C464 319.662 464 292.081 464 263.5ZM143.522 249C167.6 249 191.678 249 216 249C216 246.456 216 244.638 216 242.821C216 230.993 216.034 219.164 215.985 207.335C215.965 202.34 219.448 200.15 223.336 199.506C226.793 198.934 230.096 200.801 230.96 204.761C231.583 207.614 231.613 210.592 232.03 213.497C232.2 214.684 232.344 216.17 233.096 216.929C238.478 222.367 246.261 220.824 248.942 213.758C252.905 203.315 256.685 192.804 260.474 182.509C255.021 180.783 249.674 179.09 244.395 177.419C236.76 191.502 228.772 193.535 215.677 184.919C211.735 182.325 207.891 179.581 204.004 176.906C199.391 180.69 194.931 184.299 190.524 187.972C181.243 195.71 167.138 196.11 158.979 188.641C154.597 184.631 149.545 181.353 144.663 177.644C142.277 180.898 140.044 183.533 138.267 186.447C133.425 194.386 132.21 203.314 132.052 212.362C131.841 224.456 132 236.557 132 249C135.924 249 139.227 249 143.522 249ZM16.0001 143.5C16.0001 211.889 16.0001 280.278 16.0001 348.615C22.3688 348.615 28.0868 348.615 33.9999 348.615C33.9999 346.41 33.9999 344.587 33.9999 342.765C33.9999 258.816 33.9967 174.867 34.02 90.9185C34.0205 88.9545 34.0743 86.9329 34.5209 85.0365C36.6821 75.8594 48.2785 65.7859 58.6368 66.8381C66.6325 67.6503 74.7768 67.0001 82.7107 67.0001C82.7107 60.9224 82.7107 55.6557 82.7107 50.0089C67.6354 50.0089 52.827 49.5638 38.0667 50.2135C31.5642 50.4998 25.9166 53.9768 21.719 59.6377C17.2384 65.6803 16.1751 72.5467 16.0912 79.5394C15.8393 100.524 16.0002 121.513 16.0001 143.5ZM480 272.5C480 297.909 480 323.318 480 348.587C486.427 348.587 492.146 348.587 498 348.587C498 346.179 498 344.183 498 342.187C498 263.069 498.038 183.95 497.956 104.832C497.944 93.9066 497.556 82.9697 496.94 72.0609C496.301 60.7361 487.785 51.0966 476.232 50.2773C461.369 49.2232 446.375 50.0209 431.33 50.0209C431.33 55.9233 431.33 61.3042 431.33 67C439.962 67 448.321 67.6029 456.556 66.85C467.269 65.8707 480.312 79.7592 480.227 90.6117C479.754 150.905 480 211.203 480 272.5ZM157.445 348C160.207 348 162.97 348 165.613 348C165.613 319.94 165.613 292.571 165.613 265.258C143.303 265.258 121.382 265.258 99.301 265.258C99.301 292.886 99.301 320.254 99.301 348C118.552 348 137.504 348 157.445 348ZM267.5 414C247.426 414 227.352 414 207.398 414C207.398 431.073 207.398 447.448 207.398 463.721C216.061 463.721 224.324 463.721 233 463.721C233 457.825 232.988 452.2 233.004 446.575C233.023 439.577 237.656 433.055 244.511 432.134C251.834 431.15 259.382 430.603 266.714 431.235C275.838 432.021 280.997 438.838 281 448.053C281.001 453.306 281 458.559 281 463.738C290.025 463.738 298.286 463.738 306.688 463.738C306.688 447.101 306.688 430.727 306.688 414C293.752 414 281.126 414 267.5 414ZM176.003 149.495C176.467 149.341 176.921 149.095 177.395 149.045C187.703 147.975 196.334 140.467 198.817 130.385C201.2 120.707 196.906 109.647 188.548 104.061C179.794 98.2108 170.754 97.1606 161.553 102.903C153.113 108.17 148.44 115.907 149.12 125.866C149.943 137.924 158.263 148.944 176.003 149.495ZM252.487 155.016C251.757 157.275 251.028 159.534 250.145 162.269C255.694 164.025 260.994 165.702 266.249 167.365C268.753 161.116 270.975 155.573 273.394 149.537C266.601 147.921 265.556 142.776 265.819 136.76C261.407 138.055 257.922 139.1 256.851 143.89C256.045 147.493 254.269 150.879 252.487 155.016ZM266 452.609C266 450.848 266 449.087 266 447.368C259.643 447.368 253.936 447.368 248.239 447.368C248.239 452.995 248.239 458.25 248.239 463.714C254.185 463.714 259.89 463.714 266 463.714C266 460.146 266 456.859 266 452.609ZM181.592 174.086C184.027 172.307 186.461 170.529 189.261 168.484C176.984 164.824 166.403 165.077 159.728 168.893C161.301 170.242 162.887 171.637 164.511 172.986C172.145 179.332 175.373 179.63 181.592 174.086Z" fill="#F16A5E"/>
<path d="M362 315C330.187 315 298.874 315.022 267.562 314.961C264.92 314.956 263.169 315.267 261.856 318.134C258.229 326.05 251.531 330.252 243.047 330.905C233.291 331.657 224.536 328.722 219.616 319.767C217.324 315.595 214.814 314.751 210.718 314.939C205.944 315.157 201.54 314.42 199.88 308.745C198.419 303.753 201.056 298.89 206.164 299.159C213.036 299.522 217.066 297.801 221.592 291.555C232.097 277.059 253.271 279.547 261.957 295.297C263.573 298.227 265.312 299.08 268.509 299.071C308.316 298.963 348.123 298.999 387.93 299.002C394.429 299.003 396.901 301.064 396.999 306.522C397.098 312.062 394.268 314.863 387.982 314.965C379.49 315.102 370.994 315 362 315ZM235.586 299.945C231.476 304.028 230.753 308.384 233.577 312.048C235.941 315.115 242.082 316.313 245.194 313.849C248.81 310.986 250.314 307.414 248.053 303.161C245.504 298.367 241.482 297.074 235.586 299.945Z" fill="#F16A5E"/>
<path d="M131.139 299C133.423 299.001 135.251 298.972 137.077 299.007C141.49 299.093 144.339 301.444 144.883 305.663C145.397 309.646 143.324 313.248 139.393 313.815C134.529 314.517 129.257 314.622 124.595 313.37C122.788 312.886 121.097 307.887 121.348 305.127C121.547 302.947 124.636 300.84 126.78 299.124C127.593 298.474 129.353 299.007 131.139 299Z" fill="#F16A5E"/>
</g>
<defs>
<clipPath id="clip0_133_304">
<rect width="512" height="512" fill="white"/>
</clipPath>
</defs>
</svg>
