<svg width="512" height="512" viewBox="0 0 512 512" fill="none" xmlns="http://www.w3.org/2000/svg">
<g clip-path="url(#clip0_133_310)">
<path d="M513 149C513 230.354 513 311.708 512.669 393.706C511.801 396.095 511.322 397.86 510.718 399.582C504.855 416.309 491.818 426.105 475.145 428.08C436.296 428.06 397.874 428.06 359.16 428.06C359.16 437.157 359.16 445.624 359.363 454.454C375.376 454.831 391.186 454.844 407.35 454.914C418.461 452.866 432.949 466.806 435.102 475.605C438.793 490.691 432.42 506.738 415 513C349.312 513 283.625 513 217.393 512.652C208.333 509.024 202.555 503.091 198.991 494.678C194.374 483.777 198.22 468.977 208.894 460.585C213.88 456.664 219.336 455.484 225.328 454.475C241.749 454.804 257.879 454.835 274.405 454.701C274.868 448.05 275.026 441.564 274.952 435.081C274.926 432.76 274.337 430.447 273.538 428.085C231.864 428.061 190.657 428.083 149.007 428.096C129.891 426.364 112.149 408.581 112.061 388.458C111.859 342.162 112.031 295.865 111.896 249.569C111.889 247.178 111.114 244.14 109.546 242.508C99.2792 231.823 88.7365 221.401 78.1565 211.023C77.0139 209.902 74.9986 208.939 73.4837 209.064C68.5441 209.471 63.6013 210.187 58.7454 211.196C43.737 214.316 28.7608 217.591 13.7881 220.879C8.39289 222.064 4.01263 220.904 1 216C1 213.958 1 211.916 1.35386 209.368C6.85637 197.578 12.0326 186.307 17.1473 175.009C25.1908 157.241 33.1744 139.447 41.2182 121.68C47.7536 107.244 54.4858 92.8957 60.8309 78.3776C63.2974 72.7341 66.395 68.2144 72.5439 66.2186C76.5873 64.9062 80.604 63.397 84.4334 61.5604C97.9927 55.0571 111.444 48.3291 124.98 41.7775C133.524 37.6424 142.14 33.6573 150.734 29.6267C169.263 20.9364 187.711 12.0617 206.423 3.78595C209.333 2.49917 214.691 2.56799 216.814 4.42041C225.189 11.7315 232.715 20.0135 240.576 27.9153C247.596 34.9717 254.643 42.0016 261.707 49.0732C262.617 48.4914 263.156 48.1243 263.716 47.7925C269.178 44.5543 274.508 42.5084 280.572 46.9458C285.869 50.8214 291.806 53.8161 297.147 57.6377C307.347 64.9366 307.97 73.6923 299.195 82.5497C293.684 88.1118 288.215 93.7219 282.527 99.0992C274.767 106.436 264.556 105.192 258.619 96.3447C256.215 92.7617 254.101 88.9737 251.556 85.498C245.735 77.5489 242.842 69.4962 249.618 61.5363C238.517 50.445 227.826 39.7637 217.012 28.959C214.046 43.7254 210.946 58.7252 208.137 73.7794C207.835 75.3943 208.739 77.7888 209.916 79.0373C219.49 89.1945 229.366 99.068 238.908 109.255C241.56 112.085 244.325 112.953 248.064 112.946C301.374 112.848 354.684 112.825 407.994 112.906C430.37 112.939 452.762 112.835 475.117 113.624C486.837 114.038 496.751 119.917 503.474 129.477C507.587 135.326 509.886 142.449 513 149ZM341.004 428.03C325.857 428.021 310.709 427.98 295.562 428.056C294.089 428.064 292.62 428.793 291.124 430.1C291.13 438.028 291.135 445.956 291.45 454.68C308.133 454.778 324.816 454.886 341.498 454.932C341.963 454.933 342.428 454.282 342.976 453.017C342.984 446.525 343.069 440.031 342.951 433.542C342.918 431.72 342.287 429.909 341.004 428.03ZM408.433 471.425C407.118 471.284 405.803 471.019 404.489 471.018C345.881 470.998 287.273 470.991 228.665 471.047C226.747 471.049 224.83 471.722 222.308 472.366C217.329 474.639 214.18 478.878 214.267 483.937C214.352 488.87 216.18 494.174 221.933 495.886C224.77 496.73 227.901 496.842 230.9 496.845C288.051 496.897 345.201 496.887 402.352 496.865C404.337 496.864 406.331 496.674 408.306 496.445C415.126 495.652 418.734 491.405 418.988 484.473C419.208 478.454 415.489 473.814 408.433 471.425ZM472.701 411.033C479.73 411.268 485.609 407.872 489.755 403.072C494.25 397.87 496.029 390.954 496.025 383.769C495.979 308.325 496.038 232.88 495.884 157.436C495.876 153.254 494.877 148.808 493.243 144.949C489.344 135.738 481.512 131.465 471.509 129.153C471.013 129.105 470.517 129.014 470.02 129.014C394.877 129.005 319.733 128.999 244.59 129.038C243.385 129.039 242.18 129.605 240.423 130.368C225.23 136.593 211.091 144.649 197.744 155.301C199.455 155.532 201.166 155.965 202.878 155.966C277.943 156 353.008 155.999 428.073 155.989C434.729 155.988 441.384 155.901 448.659 156.082C450.488 156.428 452.599 156.304 454.098 157.201C462.018 161.941 469.447 167.508 469.942 177.694C470.571 190.658 470.565 203.66 470.583 216.645C470.648 263.471 470.453 310.298 470.695 357.123C470.774 372.54 461.657 383.547 448.319 385.376C446.33 385.251 444.34 385.015 442.351 385.015C355.695 384.996 269.515 385.909 182.86 385.947C180.756 385.948 178.5 385.947 175.328 385.947C161.25 382.07 154.085 371.723 154.163 355.523C154.403 305.385 154.251 255.245 154.251 205.106C154.251 203.363 154.251 201.62 154.251 198.563C143.344 212.678 135.4 226.893 128.199 242.451C128.137 242.945 128.019 243.439 128.019 243.933C128.008 290.235 127.999 336.538 128.037 382.84C128.037 383.885 128.564 384.929 128.978 386.797C129.921 400.016 138.071 408.909 152.875 411.951C257.846 411.966 362.817 411.984 467.788 411.959C469.196 411.959 470.605 411.419 472.701 411.033ZM445.447 172.253C444.456 172.17 443.465 172.015 442.475 172.015C355.699 172.003 268.923 172 182.147 172.041C180.755 172.042 179.363 172.603 177.361 173.193C175.558 175.105 173.756 177.017 171.251 179.435C171.168 180.257 171.011 181.079 171.011 181.902C171.001 240.192 170.997 298.483 171.039 356.773C171.04 358.177 171.566 359.581 171.984 361.718C173.745 367.172 176.217 368.867 182.86 368.869C269.332 368.884 355.805 368.868 442.278 368.906C447.495 368.908 451.285 367.053 453.782 361.426C453.854 360.767 453.988 360.107 453.988 359.448C453.998 300.459 454.004 241.47 453.958 182.481C453.958 181.291 453.354 180.102 452.665 178.343C450.447 176.522 448.229 174.7 445.447 172.253ZM60.1408 121.637C48.3488 147.853 36.5567 174.069 24.6448 200.552C39.9091 197.919 54.3811 195.472 68.8201 192.843C70.0667 192.616 71.4789 191.412 72.1434 190.271C73.4747 187.986 74.22 185.368 75.4215 182.996C80.0859 173.789 84.1034 164.142 89.7453 155.57C96.1188 145.886 104.426 137.492 111.076 127.967C118.503 117.329 128.762 109.891 138.494 101.878C153.004 89.9337 169.325 80.9312 186.887 74.2315C189.592 73.1995 190.947 71.72 191.467 68.638C193.146 58.686 195.327 48.8192 197.246 38.9065C198.03 34.8579 198.64 30.7758 199.466 25.9016C160.293 44.3028 122.301 62.2751 84.1596 79.9223C78.7441 82.4279 76.0577 86.1915 73.8607 91.406C69.6576 101.382 64.7548 111.063 60.1408 121.637ZM202.224 130.65C209.45 126.516 216.676 122.383 224.776 117.75C215.442 108.611 206.475 99.7287 197.33 91.034C196.437 90.1848 194.217 89.8835 193.001 90.3462C168.266 99.7568 147.215 114.931 128.524 133.276C121.02 140.64 114.469 149.244 108.77 158.111C101.727 169.071 95.9228 180.839 89.8219 192.383C88.6077 194.681 87.5326 197.281 90.3815 199.98C98.3566 207.535 106.051 215.389 113.74 223.24C116.287 225.841 117.598 225.28 119.102 222.229C127.058 206.09 136.821 191.179 149.248 178.063C156.024 170.912 162.002 162.9 169.349 156.421C179.594 147.386 190.783 139.423 202.224 130.65ZM271.029 84.1738C271.602 84.5995 272.599 85.4694 272.685 85.3874C277.491 80.7794 282.221 76.092 287.308 71.0679C282.785 68.1281 279.355 65.8484 275.863 63.6678C275.084 63.1815 273.61 62.5166 273.266 62.8283C270.204 65.5997 266.833 68.2597 264.665 71.6615C263.945 72.7923 266.402 76.0032 267.497 78.2182C268.424 80.092 269.482 81.9008 271.029 84.1738Z" fill="#F16A5E"/>
<path d="M408.756 471.699C350.503 471.977 291.927 471.98 233.351 471.996C230.19 471.997 227.03 472.109 223.391 472.126C224.829 471.722 226.747 471.049 228.665 471.047C287.273 470.991 345.881 470.999 404.488 471.019C405.803 471.019 407.118 471.284 408.756 471.699Z" fill="#B9B9B9"/>
<path d="M265.834 232.841C267.054 222.75 274.572 216.282 284.47 215.888C291.112 215.624 296.218 218.489 301.59 221.671C310.932 227.204 320.57 232.239 330.061 237.523C337.321 241.565 344.561 245.644 351.782 249.756C357.065 252.765 362.379 255.731 367.545 258.932C381.301 267.455 377.839 285.455 367.807 291.751C361.083 295.972 354.069 299.734 347.141 303.623C330.392 313.025 313.655 322.45 296.84 331.731C284.644 338.463 271.525 333.882 266.625 321.338C266.215 320.29 266.136 319.112 265.927 317.127C265.911 288.453 265.873 260.647 265.834 232.841ZM283.1 315.662C284.088 317.791 285.147 318.727 287.629 317.082C290.897 314.916 294.53 313.303 297.983 311.409C316.595 301.199 335.243 291.052 353.75 280.655C355.9 279.447 358.013 277.038 358.643 274.769C358.93 273.736 355.775 271.326 353.812 270.164C346.974 266.116 339.975 262.342 333.038 258.462C318.581 250.376 304.142 242.26 289.652 234.234C287.341 232.954 284.681 231.047 282.253 235.601C282.181 261.486 282.104 287.373 282.07 313.259C282.07 313.833 282.573 314.408 283.1 315.662Z" fill="#F16A5E"/>
<path d="M348.835 206.578C344.485 205.083 341.641 202.236 342.092 197.45C342.532 192.773 346.402 189.505 351.804 189.469C374.09 189.321 396.381 189.219 418.665 189.476C428.677 189.592 436.863 198.948 436.343 208.194C435.747 218.805 436.232 229.476 436.185 240.121C436.165 244.766 434.29 248.238 429.405 249.205C424.707 250.135 421.369 248.264 419.649 243.078C419.814 230.766 419.91 219.152 419.939 207.537C419.941 207.063 419.311 206.587 418.51 206.073C396.607 206.024 375.169 206.002 353.731 206.031C352.099 206.033 350.467 206.387 348.835 206.578Z" fill="#F16A5E"/>
<path d="M435.869 285.295C434.147 290.002 429.741 292.709 425.6 291.946C421.766 291.24 419.058 287.468 419.007 282.663C418.977 279.848 418.851 277.013 419.111 274.219C419.534 269.665 423.458 266.163 427.76 266.193C430.98 266.215 435.917 270.95 436.068 274.456C436.217 277.923 436.032 281.404 435.869 285.295Z" fill="#F16A5E"/>
</g>
<defs>
<clipPath id="clip0_133_310">
<rect width="512" height="512" fill="white"/>
</clipPath>
</defs>
</svg>
