<svg width="512" height="512" viewBox="0 0 512 512" fill="none" xmlns="http://www.w3.org/2000/svg">
<path d="M400.612 251.191C397.753 257.751 390.925 257.869 385.227 260.773C385.227 262.413 385.227 264.39 385.227 266.366C385.227 339.418 385.23 412.47 385.222 485.522C385.222 490.05 385.002 494.51 379.215 496.439C377.203 496.179 375.878 496.013 374.553 496.012C295.936 496 217.318 495.997 138.7 496.028C137.069 496.028 135.437 496.426 133.806 496.638C132.052 495.02 130.298 493.401 128.638 491.097C128.821 489.254 128.987 488.096 128.988 486.937C129 412.664 129.005 338.39 128.958 264.116C128.957 262.789 128.331 261.463 127.996 260.137C110.415 254.366 113.089 254.823 113.016 239.474C112.89 213.142 112.813 186.809 112.876 160.476C112.884 157.018 111.961 155.258 108.557 153.835C82.738 143.037 57.0234 131.989 31.2986 120.967C25.7351 118.584 23.0605 114.285 25.4914 110.228C27.1076 107.531 30.4464 105.4 33.4792 104.102C43.5613 99.7876 53.8265 95.8937 64.0726 91.972C75.6722 87.5322 87.4091 83.4417 98.9376 78.8278C114.406 72.6368 129.684 65.9681 145.132 59.7255C165.116 51.6503 185.185 43.7859 205.223 35.8445C220.383 29.8363 235.722 24.2351 250.624 17.6448C255.86 15.3294 260.014 16.7424 264.366 18.3017C272.41 21.1835 280.28 24.557 288.176 27.838C294.877 30.6227 301.458 33.7025 308.192 36.4013C315.454 39.3116 322.874 41.8272 330.149 44.7066C337.242 47.5137 344.183 50.7034 351.293 53.4633C357.401 55.8344 363.726 57.6502 369.82 60.0518C376.332 62.6178 382.639 65.7015 389.126 68.3368C394.757 70.6249 400.551 72.5109 406.209 74.7381C414.825 78.1299 423.386 81.6621 431.97 85.1359C437.517 87.3806 443.03 89.7133 448.617 91.8527C456.487 94.8661 464.456 97.6239 472.294 100.713C476.735 102.462 480.923 104.858 485.372 106.583C488.827 107.923 490.563 110.771 489.721 113.629C488.904 116.408 486.558 119.559 484.02 120.855C476.821 124.53 469.235 127.478 461.689 130.428C458.487 131.679 457.167 133.294 457.195 136.948C457.365 159.112 457.071 181.282 457.37 203.444C457.43 207.945 459.114 212.497 460.478 216.893C464.301 229.21 468.522 241.404 472.239 253.751C474.385 260.878 471.072 264.929 463.737 265.002C454.239 265.098 444.741 265.236 435.242 265.277C426.514 265.315 423.202 260.699 425.984 252.408C430.876 237.824 435.814 223.256 441.258 208.104C441.846 185.398 441.918 163.269 441.927 141.14C441.927 140.636 441.222 140.131 440.846 139.627C428.153 144.849 415.46 150.071 402.093 155.253C400.955 156.5 400.088 157.787 400.084 159.076C399.992 188.154 399.984 217.233 400.007 246.311C400.008 247.938 400.401 249.565 400.612 251.191ZM128.051 208.948C128.029 218.423 127.96 227.9 128.025 237.375C128.038 239.246 128.565 241.113 129.104 243.527C133.448 244.848 137.794 246.163 142.136 247.491C150.217 249.961 158.173 253.014 166.405 254.776C178.37 257.336 190.469 259.587 202.627 260.849C220.865 262.742 239.19 264.411 257.506 264.78C274.555 265.123 291.688 264.198 308.694 262.76C319.121 261.878 329.401 259.088 339.706 256.957C353.671 254.07 367.291 249.979 380.636 244.929C383.918 243.687 385.007 241.872 384.98 238.307C384.804 214.822 384.889 191.334 384.889 167.847C384.889 166.434 384.889 165.022 384.889 163.195C382.617 164.019 380.898 164.555 379.247 165.252C340.41 181.659 301.564 198.047 262.77 214.558C258.641 216.315 254.965 216.294 250.86 214.516C233.091 206.822 215.219 199.366 197.416 191.748C174.898 182.114 152.41 172.407 129.298 162.323C128.876 162.988 128.087 163.653 128.085 164.318C128.057 178.885 128.116 193.451 128.051 208.948ZM369.732 480.468C369.82 479.812 369.984 479.156 369.984 478.5C369.997 408.889 370.002 339.279 369.956 269.669C369.955 268.492 369.329 267.316 368.217 266.09C363.325 267.489 358.434 268.887 353.224 270.376C353.224 272.286 353.224 274.097 353.224 275.908C353.224 296.355 353.224 316.802 353.224 337.249C353.224 365.509 353.208 393.769 353.239 422.029C353.245 426.744 352.784 431.089 346.587 432.26C345.595 432.175 344.603 432.014 343.611 432.014C285.793 432.001 227.974 431.997 170.155 432.029C168.695 432.03 167.234 432.439 165.178 432.494C163.575 430.729 161.972 428.964 160.737 426.424C160.824 425.433 160.986 424.441 160.987 423.45C161 372.855 161 322.259 160.996 271.664C160.996 270.667 161.048 269.642 160.81 268.698C160.765 268.522 159.443 268.67 158.005 268.566C153.473 267.449 148.941 266.332 144.371 265.207C144.371 337.358 144.371 408.941 144.371 481C146.621 481 148.584 481 150.547 481C205.035 481 259.523 481.011 314.011 480.993C332.338 480.987 350.664 480.907 369.732 480.468ZM336.192 274.056C329.145 275.059 322.119 276.26 315.046 277.024C301.556 278.481 288.063 280.314 274.527 280.823C261.43 281.316 248.243 280.819 235.158 279.881C220.653 278.842 206.213 276.861 191.756 275.183C186.639 274.589 181.559 273.679 176.356 272.898C176.356 321.301 176.356 368.893 176.356 416.998C182.756 416.998 188.878 417.003 194.999 416.997C242.329 416.953 289.659 416.906 337.731 416.469C337.819 415.813 337.984 415.158 337.984 414.502C337.997 368.89 338.004 323.279 337.955 277.667C337.954 276.491 337.328 275.315 336.192 274.056ZM435.125 103.339C377.108 80.4008 319.081 57.4888 261.102 34.4547C257.891 33.1788 255.349 33.4807 252.232 34.7221C200.617 55.2802 148.944 75.6956 97.2896 96.1555C83.265 101.711 69.2568 107.307 54.5052 113.177C60.1355 115.803 64.9785 118.259 69.9757 120.346C78.0556 123.721 86.3179 126.665 94.3541 130.136C103.732 134.187 112.872 138.791 122.262 142.812C130.147 146.189 138.324 148.883 146.223 152.23C154.046 155.545 161.597 159.501 169.422 162.812C179.538 167.093 189.837 170.942 200.001 175.114C208.616 178.649 217.196 182.277 225.707 186.053C233.358 189.447 240.751 193.472 248.543 196.475C252.329 197.934 257.322 199.215 260.813 197.948C272.651 193.65 284.015 188.066 295.651 183.191C305.204 179.188 314.93 175.601 324.498 171.635C333.119 168.063 341.605 164.165 350.199 160.525C356.609 157.81 363.151 155.403 369.537 152.636C381.346 147.52 393.086 142.245 404.851 137.028C408.065 135.602 411.267 134.148 414.474 132.707C407.693 131.627 401.09 131.471 394.518 130.938C379.519 129.724 364.545 128.189 349.542 127.039C334.161 125.859 318.749 125.088 303.365 123.942C287.369 122.75 271.394 121.266 255.4 120.035C250.468 119.656 246.895 116.233 247.002 111.476C247.102 107.05 250.699 103.73 255.632 103.889C258.565 103.984 261.471 104.766 264.408 104.959C275.792 105.708 287.194 106.2 298.568 107.066C308.934 107.855 319.259 109.169 329.625 109.95C340.608 110.777 351.629 111.094 362.612 111.917C373.906 112.764 385.168 114.021 396.454 114.976C409.118 116.048 421.784 117.13 434.468 117.908C439.729 118.231 445.086 118.172 450.306 117.53C453.539 117.133 456.597 115.314 460.948 113.676C451.922 110.111 443.856 106.925 435.125 103.339ZM451.032 240.464C450.461 238.907 449.89 237.349 448.933 234.739C447.086 240.454 445.645 244.913 444.128 249.605C447.617 249.605 450.595 249.605 453.974 249.605C452.934 246.475 452.06 243.844 451.032 240.464Z" fill="#F16A5E"/>
<path d="M237.932 464.549C233.479 462.886 231.835 459.594 232.856 455.107C233.855 450.716 236.935 448.952 241.338 448.98C251.494 449.045 261.65 448.934 271.805 449.027C277.349 449.078 281.294 451.655 281.518 455.942C281.693 459.306 280.851 462.863 275.851 464.051C262.653 464.24 250.293 464.395 237.932 464.549Z" fill="#F16A5E"/>
</svg>
